<svg xmlns="http://www.w3.org/2000/svg" viewBox="0 0 60 60" version="1.0"><path style="stroke-linejoin:round;stroke:#fff;stroke-linecap:round;stroke-width:8.125;fill:none" d="M6.683 4.688a1.998 1.998 0 0 0-1.996 2.01v46.605c0 1.113.89 2.01 1.996 2.01h46.634a1.998 1.998 0 0 0 1.996-2.01V6.697c0-1.112-.89-2.009-1.996-2.009H6.683z"/><path style="stroke-linejoin:round;fill-rule:evenodd;stroke:#000;stroke-linecap:round;stroke-width:3.125;fill:#fff" d="M6.683 4.688a1.998 1.998 0 0 0-1.996 2.01v46.605c0 1.113.89 2.01 1.996 2.01h46.634a1.998 1.998 0 0 0 1.996-2.01V6.697c0-1.112-.89-2.009-1.996-2.009H6.683z"/><path style="fill:#000" d="M47.212 36.845v-8.666c0-.519.161-.951.482-1.294.33-.351.75-.527 1.262-.527.519 0 .94.176 1.261.527.33.343.494.775.494 1.294v8.666c0 .519-.164.958-.494 1.317-.321.351-.742.526-1.261.526-.512 0-.932-.175-1.262-.526-.321-.359-.482-.798-.482-1.317zm-.34-13.657c0-.571.204-1.064.614-1.481s.9-.626 1.47-.626c.578 0 1.071.205 1.481.615.409.409.614.907.614 1.492 0 .607-.205 1.111-.614 1.514-.41.402-.903.603-1.481.603-.57 0-1.06-.205-1.47-.614a2.044 2.044 0 0 1-.614-1.503zM42.22 36.845v-8.666c0-.519.161-.951.483-1.294.329-.351.75-.527 1.262-.527.519 0 .939.176 1.261.527.329.343.494.775.494 1.294v8.666c0 .519-.165.958-.494 1.317-.322.351-.742.526-1.261.526-.512 0-.933-.175-1.262-.526-.322-.359-.483-.798-.483-1.317zm-.34-13.657c0-.571.205-1.064.615-1.481a1.987 1.987 0 0 1 1.47-.626 2.02 2.02 0 0 1 1.481.615c.409.409.614.907.614 1.492 0 .607-.205 1.111-.614 1.514a2.04 2.04 0 0 1-1.481.603 2.006 2.006 0 0 1-1.47-.614 2.045 2.045 0 0 1-.615-1.503zm-10.465 9.324c0-1.163.249-2.234.746-3.214.497-.987 1.192-1.763 2.084-2.326.9-.563 1.924-.844 3.072-.844.607 0 1.232.073 1.876.219.643.139 1.185.38 1.623.724.439.344.658.808.658 1.393 0 .468-.138.86-.416 1.174a1.293 1.293 0 0 1-1.021.472 1.76 1.76 0 0 1-.581-.099 28.783 28.783 0 0 1-.559-.208 3.467 3.467 0 0 0-.593-.198 3.296 3.296 0 0 0-.779-.077c-.57 0-1.053.136-1.448.406a2.45 2.45 0 0 0-.877 1.075 3.8 3.8 0 0 0-.286 1.503c0 .541.096 1.046.286 1.514.19.461.464.826.822 1.097.366.271.798.406 1.295.406.563 0 1.13-.106 1.7-.318.571-.212.911-.318 1.02-.318.264 0 .505.076.724.23.22.154.392.355.516.603.132.242.197.49.197.746 0 .541-.237.998-.713 1.371a4.43 4.43 0 0 1-1.678.812c-.651.176-1.24.264-1.766.264-.87 0-1.668-.161-2.392-.483a5.578 5.578 0 0 1-1.875-1.371 6.24 6.24 0 0 1-1.218-2.063 7.378 7.378 0 0 1-.417-2.49zm-9.708 3.96c0-.497.139-.907.417-1.228.285-.322.629-.483 1.031-.483.241 0 .471.044.691.132.219.08.512.212.877.394.373.176.681.304.922.384.241.081.534.121.878.121.336 0 .585-.066.745-.197a.656.656 0 0 0 .242-.516.656.656 0 0 0-.154-.45 1.113 1.113 0 0 0-.406-.285c-.168-.08-.406-.179-.713-.296s-.789-.307-1.448-.571c-.687-.292-1.217-.566-1.59-.822a2.716 2.716 0 0 1-.867-.999c-.205-.409-.307-.917-.307-1.524 0-.688.183-1.339.548-1.953.373-.614.904-1.108 1.591-1.481.695-.38 1.488-.57 2.38-.57.381 0 .805.047 1.273.142.468.088.911.238 1.327.45.425.205.768.468 1.032.79.27.322.405.702.405 1.141 0 .285-.065.545-.197.779-.124.226-.3.402-.527.526a1.535 1.535 0 0 1-.735.176c-.146 0-.307-.033-.482-.099a13.99 13.99 0 0 1-.724-.318 6.54 6.54 0 0 0-.845-.34 2.497 2.497 0 0 0-.757-.121c-.256 0-.475.062-.658.187-.176.124-.263.31-.263.559 0 .285.285.548.855.79l1.986.812c.76.307 1.389.72 1.887 1.239.504.519.757 1.218.757 2.095 0 .805-.202 1.511-.604 2.118a3.915 3.915 0 0 1-1.645 1.382 5.237 5.237 0 0 1-2.249.483c-1.192 0-2.271-.224-3.236-.67-.958-.453-1.437-1.045-1.437-1.777zm-.944-8.293v8.666c0 .527-.164.966-.493 1.317s-.75.526-1.262.526c-.402 0-.742-.11-1.02-.329a2.139 2.139 0 0 1-.614-.79c-.395.483-.834.827-1.317 1.031-.475.212-1.042.319-1.7.319a4.768 4.768 0 0 1-2.743-.845c-.819-.571-1.469-1.346-1.952-2.326-.476-.987-.713-2.066-.713-3.236 0-1.155.237-2.223.713-3.203.483-.987 1.137-1.763 1.963-2.326a4.709 4.709 0 0 1 2.732-.855c.665 0 1.232.102 1.7.307.476.205.914.552 1.317 1.042.131-.3.336-.56.614-.779.278-.227.618-.34 1.02-.34.512 0 .933.176 1.262.527.329.343.493.775.493 1.294zm-5.912 1.349c-.746 0-1.335.286-1.767.856-.424.57-.636 1.28-.636 2.128 0 .541.095 1.046.285 1.514.191.461.465.826.823 1.097.366.271.797.406 1.295.406.753 0 1.342-.285 1.766-.856.424-.578.636-1.298.636-2.161 0-.856-.212-1.565-.636-2.128-.424-.57-1.013-.856-1.766-.856z"/></svg>